<svg version="1.0" xmlns="http://www.w3.org/2000/svg"
 width="900.000000pt" height="462.000000pt" viewBox="0 0 900.000000 462.000000"
 preserveAspectRatio="xMidYMid meet">
<metadata>
Created by potrace 1.10, written by Peter Selinger 2001-2011
</metadata>
<g transform="translate(0.000000,462.000000) scale(0.100000,-0.100000)"
fill="#000000" stroke="none">
<path d="M5729 4177 c-24 -13 -59 -43 -77 -68 -46 -61 -52 -68 -114 -121 -57
-49 -88 -98 -88 -141 0 -24 -49 -77 -71 -77 -32 0 -278 -135 -286 -157 -3 -7
2 -30 10 -51 9 -23 13 -55 10 -82 -7 -67 6 -90 61 -111 54 -20 92 -17 144 14
24 14 58 21 120 24 80 4 89 3 115 -19 l29 -24 -42 -49 c-45 -55 -80 -115 -80
-140 0 -9 -16 -31 -35 -51 -47 -47 -46 -70 5 -85 38 -12 45 -10 113 23 39 20
89 38 110 41 21 3 60 20 86 37 43 27 91 40 91 24 0 -4 -21 -31 -47 -62 -27
-30 -55 -63 -63 -73 -9 -11 -52 -32 -97 -48 -44 -16 -105 -40 -135 -54 -74
-34 -136 -57 -153 -57 -20 0 -145 -61 -175 -85 -14 -11 -40 -39 -58 -62 -18
-23 -69 -69 -115 -102 -45 -34 -91 -74 -100 -90 -10 -17 -36 -43 -59 -58 -52
-35 -105 -117 -89 -137 7 -8 24 -17 39 -21 15 -4 35 -14 45 -23 13 -12 20 -13
25 -5 4 7 30 17 57 23 28 6 64 21 80 33 36 26 81 27 154 2 50 -16 55 -16 99 1
51 19 152 90 152 106 0 12 27 7 85 -16 22 -8 68 -15 103 -16 90 0 139 -29 114
-67 -12 -18 -113 -83 -131 -83 -50 -2 -171 -110 -171 -153 0 -17 47 -60 81
-74 22 -9 29 -8 42 8 11 12 30 19 52 19 20 0 53 9 75 20 21 11 67 24 102 29
35 5 80 19 100 31 30 17 41 19 58 10 20 -11 58 -10 320 6 93 5 96 5 119 -20
14 -14 32 -26 40 -26 15 0 36 -31 85 -125 21 -41 75 -104 134 -158 38 -35 39
-47 11 -73 -12 -10 -28 -36 -36 -56 -8 -21 -19 -38 -23 -38 -4 0 -21 -32 -36
-72 -17 -42 -45 -88 -68 -112 -40 -42 -53 -79 -63 -168 -4 -42 1 -60 51 -162
85 -175 90 -191 76 -225 -16 -40 -73 -77 -144 -93 -48 -10 -63 -19 -78 -43
-10 -16 -18 -33 -18 -37 0 -4 20 -21 45 -38 57 -40 168 -53 209 -26 16 10 47
16 85 16 53 0 65 4 94 30 36 31 38 36 63 235 7 60 42 125 67 125 10 0 32 -7
48 -16 28 -14 33 -14 54 0 14 9 46 16 73 16 26 0 52 4 57 9 6 6 45 13 88 17
l78 7 57 -56 c73 -72 173 -111 279 -108 43 2 57 -3 85 -26 18 -16 51 -37 72
-48 91 -46 105 -56 154 -112 72 -84 159 -135 240 -141 34 -2 62 -8 62 -12 0
-4 -20 -24 -45 -44 -58 -48 -58 -69 1 -96 26 -11 58 -20 71 -20 14 0 35 -8 48
-18 29 -23 105 -20 165 7 25 11 59 21 77 21 71 0 129 20 164 56 32 33 34 39
34 107 0 64 -3 76 -29 110 -16 21 -39 59 -51 85 -38 82 -181 201 -243 202 -22
0 -34 6 -38 17 -4 10 -12 32 -19 48 -7 17 -16 53 -19 80 -9 64 -22 99 -59 154
-19 27 -31 61 -34 90 -6 63 -27 105 -74 149 -43 41 -54 71 -63 177 -5 56 -2
85 16 145 17 58 21 96 19 168 -2 75 1 97 14 112 13 15 14 27 6 76 -5 33 -18
79 -29 104 -10 25 -22 72 -27 105 -6 56 -11 64 -63 115 -32 30 -92 86 -135
124 -49 43 -100 101 -136 155 -33 48 -92 123 -133 167 -41 43 -96 111 -123
149 -27 39 -72 94 -101 124 -42 44 -54 63 -59 99 -4 25 -14 61 -22 81 -24 56
-31 74 -38 101 -9 31 -62 88 -135 145 -103 79 -344 185 -453 199 -28 3 -78 22
-121 46 -40 22 -81 40 -91 40 -9 0 -43 15 -74 34 -107 64 -161 86 -209 86 -30
0 -58 7 -76 19 -32 21 -54 20 -143 -5 -77 -23 -115 -16 -132 24 -17 38 -33 40
-92 9z"/>
<path d="M380 3196 c0 -14 5 -26 10 -26 6 0 10 -9 10 -20 0 -11 -4 -20 -9 -20
-6 0 -18 -25 -27 -55 -13 -42 -22 -55 -37 -55 -16 0 -18 -5 -13 -26 6 -22 0
-32 -35 -62 -47 -40 -78 -100 -79 -150 0 -32 25 -92 60 -142 10 -14 21 -45 25
-70 11 -66 41 -117 102 -177 98 -96 208 -136 397 -147 75 -4 95 -9 127 -32 47
-32 50 -57 13 -105 -112 -148 -171 -234 -202 -299 -36 -73 -37 -79 -40 -205
-3 -77 1 -164 9 -214 16 -106 5 -152 -58 -233 -50 -66 -56 -96 -29 -153 14
-29 14 -40 0 -114 -12 -62 -13 -90 -5 -113 16 -46 14 -69 -14 -126 -14 -29
-25 -57 -25 -62 0 -14 39 -129 51 -152 24 -45 88 -55 196 -33 71 15 68 44 -24
209 -53 96 -54 101 -48 155 3 31 2 85 -4 122 -11 68 -3 125 21 141 7 4 37 8
67 8 65 0 139 37 173 85 20 29 133 105 156 105 5 0 30 -16 57 -36 54 -42 55
-55 15 -154 -37 -92 -37 -92 18 -146 27 -27 60 -71 72 -96 12 -26 37 -63 56
-83 24 -25 34 -46 34 -68 0 -17 7 -56 16 -88 27 -97 94 -139 218 -139 100 0
122 31 64 93 -115 120 -268 305 -268 322 0 4 -14 27 -30 52 -18 27 -28 52 -25
63 3 10 32 36 64 59 72 50 117 100 142 157 22 53 89 127 128 144 25 10 40 8
107 -15 74 -26 83 -27 213 -20 75 3 162 13 194 21 82 20 93 18 120 -18 23 -31
24 -38 17 -103 -9 -86 -27 -128 -75 -178 -36 -37 -39 -38 -85 -32 -30 4 -50 3
-55 -4 -3 -6 -23 -11 -44 -11 -33 0 -45 -7 -83 -48 -38 -41 -46 -58 -62 -129
-11 -44 -16 -88 -13 -97 9 -24 46 -19 85 11 19 14 46 27 59 29 14 1 37 14 52
28 14 13 39 28 56 32 16 4 44 16 62 26 29 17 38 18 105 8 77 -13 175 -26 270
-36 52 -6 67 -3 142 30 76 32 90 35 143 30 70 -8 118 12 134 52 5 15 12 81 15
148 5 103 11 136 41 226 28 84 44 114 78 150 23 25 77 92 120 148 43 57 83
106 89 108 6 2 23 22 36 44 27 44 53 58 75 40 8 -6 33 -21 57 -33 24 -12 48
-32 53 -43 19 -40 36 -53 88 -69 29 -9 65 -26 80 -37 32 -22 130 -58 159 -58
11 0 36 9 56 20 20 10 45 21 55 24 12 4 17 16 17 40 0 19 5 47 11 63 6 15 15
69 20 120 10 94 31 163 50 163 5 0 22 -6 37 -14 15 -7 67 -21 115 -31 86 -18
90 -18 143 0 30 10 57 22 59 26 3 3 -28 10 -68 13 -80 8 -136 29 -185 70 -32
28 -32 29 -26 90 4 35 1 86 -5 117 -17 83 -11 93 63 86 36 -3 83 -16 113 -31
29 -14 57 -26 62 -26 5 0 22 -6 38 -14 85 -42 143 -58 143 -38 0 14 -127 114
-234 183 -79 52 -123 64 -226 62 -68 -2 -99 3 -153 23 -38 13 -74 24 -81 24
-7 0 -47 33 -90 74 -107 101 -184 137 -371 171 -38 7 -122 28 -185 48 -278 84
-338 93 -480 73 -182 -26 -248 -49 -501 -170 -75 -36 -154 -69 -175 -75 -47
-11 -84 -28 -189 -86 -44 -25 -109 -59 -145 -77 l-65 -32 -220 -6 -220 -6 -97
-42 -97 -42 -103 21 c-87 17 -123 19 -228 14 -136 -8 -186 1 -267 46 -86 48
-173 151 -173 204 0 9 19 40 43 68 68 82 87 118 87 173 0 27 7 58 15 68 22 29
18 69 -9 95 -16 15 -25 37 -28 70 -4 44 -42 136 -60 147 -4 3 -8 -6 -8 -20z
m2367 -2082 c25 -5 124 -149 117 -169 -3 -7 -22 -15 -42 -19 -72 -12 -91 -7
-128 29 -19 20 -45 35 -57 35 -13 0 -42 9 -65 20 -33 16 -40 24 -34 38 10 27
45 68 62 74 15 5 110 0 147 -8z"/>
</g>
</svg>
